<svg width="25" height="32" viewBox="0 0 25 32" fill="none" xmlns="http://www.w3.org/2000/svg">
<path d="M4.87651 0.382813L0.383301 0.382812L0.383301 4.21522H5.02662L8.61918 8.03762H15.6542L19.2668 4.21522H23.9101V0.382813L19.2668 0.382813L15.424 4.21522H8.86936L4.87651 0.382813Z" stroke="#FF0000" stroke-width="0.766667"/>
<path d="M4.89604 8.05078H0.402832L0.402832 11.8832H5.04615L8.63871 15.7056H15.6737L19.2863 11.8832H23.9296V8.05078H19.2863L15.4436 11.8832H8.88889L4.89604 8.05078Z" stroke="#FF0000" stroke-width="0.766667"/>
<path d="M4.91655 15.7227H0.42334L0.42334 19.5551H5.06666L8.65922 23.3775H15.6942L19.3068 19.5551H23.9501V15.7227H19.3068L15.4641 19.5551H8.9094L4.91655 15.7227Z" stroke="#FF0000" stroke-width="0.766667"/>
<path d="M4.93803 23.3945H0.444824L0.444824 27.2269H5.08814L8.68071 31.0493H15.7157L19.3283 27.2269H23.9716V23.3945H19.3283L15.4856 27.2269H8.93089L4.93803 23.3945Z" stroke="#FF0000" stroke-width="0.766667"/>
</svg>
