<svg width="406" height="527" viewBox="0 0 406 527" fill="none" xmlns="http://www.w3.org/2000/svg">
<g opacity="0.33">
<path d="M78.5341 2L2 2L2 67.2871H81.091L142.284 132.404H262.114L323.648 67.2871H402.739V2L323.648 2L258.193 67.2871L146.546 67.2871L78.5341 2Z" stroke="black" stroke-width="4"/>
<path d="M78.8715 132.65H2.3374L2.3374 197.938H81.4284L142.622 263.054H262.451L323.985 197.938H403.076V132.65H323.985L258.531 197.938H146.883L78.8715 132.65Z" stroke="black" stroke-width="4"/>
<path d="M79.2148 263.34H2.68066L2.68066 328.627H81.7716L142.965 393.744H262.794L324.329 328.627H403.42V263.34H324.329L258.874 328.627H147.226L79.2148 263.34Z" stroke="black" stroke-width="4"/>
<path d="M79.5952 393.99H3.06104L3.06104 459.277H82.152L143.345 524.394H263.175L324.709 459.277H403.8V393.99H324.709L259.254 459.277H147.607L79.5952 393.99Z" stroke="black" stroke-width="4"/>
</g>
</svg>
